<?xml version="1.0" encoding="UTF-8"?>
<svg width="2880" height="480" viewBox="0 0 2880 480" fill="none" xmlns="http://www.w3.org/2000/svg">
  <path d="M2880 192h-96.2c-96.2 0-288.6 0-481 64.05-192.4 63.45-384.8 192.45-577.2 207.9C1532.4 480.3 1340 384.3 1147.6 352.2 955.2 319.65 762.8 351.45 570.4 367.2 378 383.4 185.6 383.4 89.4 383.4H-6.8V0h96.2c96.2 0 288.6 0 481 64.05 192.4 63.45 384.8 192.45 577.2 207.9C1340.8 288.3 1533.2 192.3 1725.6 160.2c192.4-32.55 384.8-0.75 577.2 15 192.4 16.2 384.8 16.2 481 16.2h96.2v0.6z" fill="#60A5FA" fill-opacity="0.3"/>
  <path d="M2880 192h-96.2c-96.2 0-288.6 0-481 64.05-192.4 63.45-384.8 192.45-577.2 207.9C1532.4 480.3 1340 384.3 1147.6 352.2 955.2 319.65 762.8 351.45 570.4 367.2 378 383.4 185.6 383.4 89.4 383.4H-6.8V0h96.2c96.2 0 288.6 0 481 64.05 192.4 63.45 384.8 192.45 577.2 207.9C1340.8 288.3 1533.2 192.3 1725.6 160.2c192.4-32.55 384.8-0.75 577.2 15 192.4 16.2 384.8 16.2 481 16.2h96.2v0.6z" fill="#60A5FA" fill-opacity="0.2" transform="translate(0, 40)"/>
</svg>
